<svg width="185" height="29" viewBox="0 0 185 29" fill="none" xmlns="http://www.w3.org/2000/svg">
<path d="M176.381 22.5122C173.586 22.5122 171.41 21.8295 169.853 20.4642C168.296 19.0988 167.517 17.0828 167.517 14.4162C167.517 11.6215 168.242 9.55216 169.693 8.20816C171.144 6.84282 173.224 6.16016 175.933 6.16016C178.578 6.16016 180.584 6.87482 181.949 8.30416C183.336 9.71216 184.029 11.6002 184.029 13.9682V15.5042H173.437C173.437 16.7842 173.661 17.6908 174.109 18.2242C174.557 18.7575 175.346 19.0242 176.477 19.0242C177.266 19.0242 177.97 18.8855 178.589 18.6082V17.3282H183.485V20.1762C182.653 20.9442 181.672 21.5308 180.541 21.9362C179.41 22.3202 178.024 22.5122 176.381 22.5122ZM178.141 12.4322C178.141 11.5575 177.928 10.8855 177.501 10.4162C177.096 9.92549 176.53 9.68016 175.805 9.68016C175.037 9.68016 174.45 9.92549 174.045 10.4162C173.64 10.8855 173.437 11.5575 173.437 12.4322H178.141Z" fill="black"/>
<path d="M152.844 22.5126C150.924 22.5126 149.516 22.054 148.62 21.1366C147.724 20.198 147.276 18.8433 147.276 17.0726V11.6326C147.276 10.822 146.839 10.4166 145.964 10.4166H145.356V6.64062H153.292V17.0406C153.292 17.7233 153.431 18.214 153.708 18.5126C153.985 18.8113 154.401 18.9606 154.956 18.9606C155.553 18.9606 155.991 18.8113 156.268 18.5126C156.545 18.214 156.684 17.7233 156.684 17.0406V11.6326C156.684 11.2273 156.609 10.9286 156.46 10.7366C156.332 10.5233 156.076 10.4166 155.692 10.4166H155.18V6.64062H162.668V16.9766C162.668 17.7873 163.116 18.1926 164.012 18.1926H164.332V22.0006H158.956L158.732 20.0486C157.9 20.9446 157.036 21.5846 156.14 21.9686C155.244 22.3313 154.145 22.5126 152.844 22.5126Z" fill="black"/>
<path d="M134.125 28.4002C132.546 28.4002 131.202 28.1975 130.093 27.7922C129.005 27.4082 128.024 26.8322 127.149 26.0642V23.6002H132.045V24.4642C132.536 24.8695 133.208 25.0722 134.061 25.0722C134.722 25.0722 135.202 24.8802 135.501 24.4962C135.8 24.1122 135.949 23.6002 135.949 22.9602V20.6562C135.33 21.1255 134.69 21.4668 134.029 21.6802C133.368 21.8935 132.568 22.0002 131.629 22.0002C129.282 22.0002 127.49 21.3495 126.253 20.0482C125.016 18.7468 124.397 16.7522 124.397 14.0642C124.397 11.5468 125.058 9.60549 126.381 8.24016C127.725 6.85349 129.496 6.16016 131.693 6.16016C132.994 6.16016 134.05 6.36282 134.861 6.76816C135.693 7.17349 136.418 7.82416 137.037 8.72016L137.293 6.64016H142.477V10.3202H142.157C141.752 10.3202 141.474 10.4268 141.325 10.6402C141.176 10.8535 141.101 11.1948 141.101 11.6642V21.8402C141.101 23.8455 140.493 25.4348 139.277 26.6082C138.082 27.8028 136.365 28.4002 134.125 28.4002ZM132.973 18.6082C133.912 18.6082 134.573 18.2668 134.957 17.5842C135.362 16.8802 135.565 15.8882 135.565 14.6082V13.6162C135.565 12.4002 135.362 11.4082 134.957 10.6402C134.573 9.87216 133.912 9.48816 132.973 9.48816C131.928 9.48816 131.213 9.82949 130.829 10.5122C130.466 11.1948 130.285 12.3788 130.285 14.0642C130.285 15.1948 130.36 16.0908 130.509 16.7522C130.658 17.3922 130.925 17.8615 131.309 18.1602C131.693 18.4588 132.248 18.6082 132.973 18.6082Z" fill="black"/>
<path d="M112.942 22.4802C110.254 22.4802 108.163 21.7868 106.67 20.4002C105.198 19.0135 104.462 16.9868 104.462 14.3202C104.462 11.6322 105.187 9.60549 106.638 8.24016C108.089 6.85349 110.19 6.16016 112.942 6.16016C115.673 6.16016 117.753 6.85349 119.182 8.24016C120.633 9.60549 121.358 11.6322 121.358 14.3202C121.358 16.9868 120.622 19.0135 119.15 20.4002C117.678 21.7868 115.609 22.4802 112.942 22.4802ZM112.942 18.6722C113.881 18.6722 114.531 18.3415 114.894 17.6802C115.278 16.9975 115.47 15.8775 115.47 14.3202C115.47 12.7415 115.278 11.6215 114.894 10.9602C114.531 10.2988 113.881 9.96815 112.942 9.96815C111.982 9.96815 111.321 10.2988 110.958 10.9602C110.595 11.6002 110.414 12.7202 110.414 14.3202C110.414 15.8988 110.595 17.0188 110.958 17.6802C111.321 18.3415 111.982 18.6722 112.942 18.6722Z" fill="black"/>
<path d="M91.2773 18.2244H91.9493C92.4187 18.2244 92.7493 18.1177 92.9413 17.9044C93.1547 17.6911 93.2613 17.3711 93.2613 16.9444V5.84041C93.2613 5.02974 92.824 4.62441 91.9493 4.62441H91.2773V0.816406H99.2773V17.0084C99.2773 17.8191 99.7147 18.2244 100.589 18.2244H101.261V22.0004H91.2773V18.2244Z" fill="black"/>
<path d="M79.3535 22.4802C76.6655 22.4802 74.5749 21.7868 73.0815 20.4002C71.6095 19.0135 70.8735 16.9868 70.8735 14.3202C70.8735 11.6322 71.5989 9.60549 73.0495 8.24016C74.5002 6.85349 76.6015 6.16016 79.3535 6.16016C82.0842 6.16016 84.1642 6.85349 85.5935 8.24016C87.0442 9.60549 87.7695 11.6322 87.7695 14.3202C87.7695 16.9868 87.0335 19.0135 85.5615 20.4002C84.0895 21.7868 82.0202 22.4802 79.3535 22.4802ZM79.3535 18.6722C80.2922 18.6722 80.9429 18.3415 81.3055 17.6802C81.6895 16.9975 81.8815 15.8775 81.8815 14.3202C81.8815 12.7415 81.6895 11.6215 81.3055 10.9602C80.9429 10.2988 80.2922 9.96815 79.3535 9.96815C78.3935 9.96815 77.7322 10.2988 77.3695 10.9602C77.0069 11.6002 76.8255 12.7202 76.8255 14.3202C76.8255 15.8988 77.0069 17.0188 77.3695 17.6802C77.7322 18.3415 78.3935 18.6722 79.3535 18.6722Z" fill="black"/>
<path d="M48.6885 18.2242H49.0085C49.9045 18.2242 50.3525 17.8188 50.3525 17.0082V11.6962C50.3525 10.8855 49.9365 10.4802 49.1045 10.4802H48.6885V6.64016H54.0645L54.2885 8.68816C55.6751 7.00282 57.6378 6.16016 60.1765 6.16016C62.0965 6.16016 63.5045 6.62949 64.4005 7.56816C65.2965 8.48549 65.7445 9.82949 65.7445 11.6002V17.0082C65.7445 17.8188 66.1818 18.2242 67.0565 18.2242H67.6645V22.0002H59.7285V11.6322C59.7285 10.9708 59.5898 10.4908 59.3125 10.1922C59.0351 9.89349 58.6191 9.74416 58.0645 9.74416C57.4671 9.74416 57.0298 9.89349 56.7525 10.1922C56.4751 10.4695 56.3365 10.9495 56.3365 11.6322V17.0082C56.3365 17.4135 56.4111 17.7228 56.5605 17.9362C56.7311 18.1282 57.0191 18.2242 57.4245 18.2242H57.8405V22.0002H48.6885V18.2242Z" fill="black"/>
<path d="M36.7647 22.4802C34.0767 22.4802 31.986 21.7868 30.4927 20.4002C29.0207 19.0135 28.2847 16.9868 28.2847 14.3202C28.2847 11.6322 29.01 9.60549 30.4607 8.24016C31.9113 6.85349 34.0127 6.16016 36.7647 6.16016C39.4953 6.16016 41.5753 6.85349 43.0047 8.24016C44.4553 9.60549 45.1807 11.6322 45.1807 14.3202C45.1807 16.9868 44.4447 19.0135 42.9727 20.4002C41.5007 21.7868 39.4313 22.4802 36.7647 22.4802ZM36.7647 18.6722C37.7033 18.6722 38.354 18.3415 38.7167 17.6802C39.1007 16.9975 39.2927 15.8775 39.2927 14.3202C39.2927 12.7415 39.1007 11.6215 38.7167 10.9602C38.354 10.2988 37.7033 9.96815 36.7647 9.96815C35.8047 9.96815 35.1433 10.2988 34.7807 10.9602C34.418 11.6002 34.2367 12.7202 34.2367 14.3202C34.2367 15.8988 34.418 17.0188 34.7807 17.6802C35.1433 18.3415 35.8047 18.6722 36.7647 18.6722Z" fill="black"/>
<path d="M0.974609 18.2889H1.64661C2.52128 18.2889 2.95861 17.8622 2.95861 17.0089V6.25688C2.95861 5.42488 2.52128 5.00887 1.64661 5.00887H0.974609V1.29688H8.68661L12.8786 10.8969L17.0386 1.29688H24.7506V5.00887H24.0786C23.2253 5.00887 22.7986 5.42488 22.7986 6.25688V17.0089C22.7986 17.4355 22.8946 17.7555 23.0866 17.9689C23.2999 18.1822 23.6306 18.2889 24.0786 18.2889H24.7506V22.0009H14.9906V18.2889H15.6626C16.5373 18.2889 16.9746 17.8942 16.9746 17.1049V10.1289L14.5746 15.6969H11.1506L8.75061 10.1289V17.1049C8.75061 17.8942 9.18794 18.2889 10.0626 18.2889H10.7346V22.0009H0.974609V18.2889Z" fill="black"/>
</svg>
