<svg width="185" height="29" viewBox="0 0 185 29" fill="none" xmlns="http://www.w3.org/2000/svg">
<path d="M0.974377 18.288H1.64638C2.52104 18.288 2.95838 17.8613 2.95838 17.008V6.256C2.95838 5.424 2.52104 5.008 1.64638 5.008H0.974377V1.296H8.68638L12.8784 10.896L17.0384 1.296H24.7504V5.008H24.0784C23.225 5.008 22.7984 5.424 22.7984 6.256V17.008C22.7984 17.4347 22.8944 17.7547 23.0864 17.968C23.2997 18.1813 23.6304 18.288 24.0784 18.288H24.7504V22H14.9904V18.288H15.6624C16.537 18.288 16.9744 17.8933 16.9744 17.104V10.128L14.5744 15.696H11.1504L8.75038 10.128V17.104C8.75038 17.8933 9.18771 18.288 10.0624 18.288H10.7344V22H0.974377V18.288ZM36.7644 22.48C34.0764 22.48 31.9857 21.7867 30.4924 20.4C29.0204 19.0133 28.2844 16.9867 28.2844 14.32C28.2844 11.632 29.0097 9.60533 30.4604 8.24C31.911 6.85333 34.0124 6.16 36.7644 6.16C39.495 6.16 41.575 6.85333 43.0044 8.24C44.455 9.60533 45.1804 11.632 45.1804 14.32C45.1804 16.9867 44.4444 19.0133 42.9724 20.4C41.5004 21.7867 39.431 22.48 36.7644 22.48ZM36.7644 18.672C37.703 18.672 38.3537 18.3413 38.7164 17.68C39.1004 16.9973 39.2924 15.8773 39.2924 14.32C39.2924 12.7413 39.1004 11.6213 38.7164 10.96C38.3537 10.2987 37.703 9.968 36.7644 9.968C35.8044 9.968 35.143 10.2987 34.7804 10.96C34.4177 11.6 34.2364 12.72 34.2364 14.32C34.2364 15.8987 34.4177 17.0187 34.7804 17.68C35.143 18.3413 35.8044 18.672 36.7644 18.672ZM48.6881 18.224H49.0081C49.9041 18.224 50.3521 17.8187 50.3521 17.008V11.696C50.3521 10.8853 49.9361 10.48 49.1041 10.48H48.6881V6.64H54.0641L54.2881 8.688C55.6748 7.00267 57.6375 6.16 60.1761 6.16C62.0961 6.16 63.5041 6.62933 64.4001 7.568C65.2961 8.48533 65.7441 9.82933 65.7441 11.6V17.008C65.7441 17.8187 66.1815 18.224 67.0561 18.224H67.6641V22H59.7281V11.632C59.7281 10.9707 59.5895 10.4907 59.3121 10.192C59.0348 9.89333 58.6188 9.744 58.0641 9.744C57.4668 9.744 57.0295 9.89333 56.7521 10.192C56.4748 10.4693 56.3361 10.9493 56.3361 11.632V17.008C56.3361 17.4133 56.4108 17.7227 56.5601 17.936C56.7308 18.128 57.0188 18.224 57.4241 18.224H57.8401V22H48.6881V18.224ZM79.3531 22.48C76.6651 22.48 74.5745 21.7867 73.0811 20.4C71.6091 19.0133 70.8731 16.9867 70.8731 14.32C70.8731 11.632 71.5985 9.60533 73.0491 8.24C74.4998 6.85333 76.6011 6.16 79.3531 6.16C82.0838 6.16 84.1638 6.85333 85.5931 8.24C87.0438 9.60533 87.7691 11.632 87.7691 14.32C87.7691 16.9867 87.0331 19.0133 85.5611 20.4C84.0891 21.7867 82.0198 22.48 79.3531 22.48ZM79.3531 18.672C80.2918 18.672 80.9425 18.3413 81.3051 17.68C81.6891 16.9973 81.8811 15.8773 81.8811 14.32C81.8811 12.7413 81.6891 11.6213 81.3051 10.96C80.9425 10.2987 80.2918 9.968 79.3531 9.968C78.3931 9.968 77.7318 10.2987 77.3691 10.96C77.0065 11.6 76.8251 12.72 76.8251 14.32C76.8251 15.8987 77.0065 17.0187 77.3691 17.68C77.7318 18.3413 78.3931 18.672 79.3531 18.672ZM91.2769 18.224H91.9489C92.4182 18.224 92.7489 18.1173 92.9409 17.904C93.1542 17.6907 93.2609 17.3707 93.2609 16.944V5.84C93.2609 5.02933 92.8235 4.624 91.9489 4.624H91.2769V0.815998H99.2769V17.008C99.2769 17.8187 99.7142 18.224 100.589 18.224H101.261V22H91.2769V18.224ZM112.942 22.48C110.254 22.48 108.163 21.7867 106.67 20.4C105.198 19.0133 104.462 16.9867 104.462 14.32C104.462 11.632 105.187 9.60533 106.638 8.24C108.089 6.85333 110.19 6.16 112.942 6.16C115.673 6.16 117.753 6.85333 119.182 8.24C120.633 9.60533 121.358 11.632 121.358 14.32C121.358 16.9867 120.622 19.0133 119.15 20.4C117.678 21.7867 115.609 22.48 112.942 22.48ZM112.942 18.672C113.881 18.672 114.531 18.3413 114.894 17.68C115.278 16.9973 115.47 15.8773 115.47 14.32C115.47 12.7413 115.278 11.6213 114.894 10.96C114.531 10.2987 113.881 9.968 112.942 9.968C111.982 9.968 111.321 10.2987 110.958 10.96C110.595 11.6 110.414 12.72 110.414 14.32C110.414 15.8987 110.595 17.0187 110.958 17.68C111.321 18.3413 111.982 18.672 112.942 18.672ZM134.125 28.4C132.546 28.4 131.202 28.1973 130.093 27.792C129.005 27.408 128.024 26.832 127.149 26.064V23.6H132.045V24.464C132.536 24.8693 133.208 25.072 134.061 25.072C134.722 25.072 135.202 24.88 135.501 24.496C135.8 24.112 135.949 23.6 135.949 22.96V20.656C135.33 21.1253 134.69 21.4667 134.029 21.68C133.368 21.8933 132.568 22 131.629 22C129.282 22 127.49 21.3493 126.253 20.048C125.016 18.7467 124.397 16.752 124.397 14.064C124.397 11.5467 125.058 9.60533 126.381 8.24C127.725 6.85333 129.496 6.16 131.693 6.16C132.994 6.16 134.05 6.36267 134.861 6.768C135.693 7.17333 136.418 7.824 137.037 8.72L137.293 6.64H142.477V10.32H142.157C141.752 10.32 141.474 10.4267 141.325 10.64C141.176 10.8533 141.101 11.1947 141.101 11.664V21.84C141.101 23.8453 140.493 25.4347 139.277 26.608C138.082 27.8027 136.365 28.4 134.125 28.4ZM132.973 18.608C133.912 18.608 134.573 18.2667 134.957 17.584C135.362 16.88 135.565 15.888 135.565 14.608V13.616C135.565 12.4 135.362 11.408 134.957 10.64C134.573 9.872 133.912 9.488 132.973 9.488C131.928 9.488 131.213 9.82933 130.829 10.512C130.466 11.1947 130.285 12.3787 130.285 14.064C130.285 15.1947 130.36 16.0907 130.509 16.752C130.658 17.392 130.925 17.8613 131.309 18.16C131.693 18.4587 132.248 18.608 132.973 18.608ZM152.844 22.512C150.924 22.512 149.516 22.0533 148.62 21.136C147.724 20.1973 147.276 18.8427 147.276 17.072V11.632C147.276 10.8213 146.838 10.416 145.964 10.416H145.356V6.64H153.292V17.04C153.292 17.7227 153.43 18.2133 153.708 18.512C153.985 18.8107 154.401 18.96 154.956 18.96C155.553 18.96 155.99 18.8107 156.268 18.512C156.545 18.2133 156.684 17.7227 156.684 17.04V11.632C156.684 11.2267 156.609 10.928 156.46 10.736C156.332 10.5227 156.076 10.416 155.692 10.416H155.18V6.64H162.668V16.976C162.668 17.7867 163.116 18.192 164.012 18.192H164.332V22H158.956L158.732 20.048C157.9 20.944 157.036 21.584 156.14 21.968C155.244 22.3307 154.145 22.512 152.844 22.512ZM176.381 22.512C173.586 22.512 171.41 21.8293 169.853 20.464C168.296 19.0987 167.517 17.0827 167.517 14.416C167.517 11.6213 168.242 9.552 169.693 8.208C171.144 6.84267 173.224 6.16 175.933 6.16C178.578 6.16 180.584 6.87467 181.949 8.304C183.336 9.712 184.029 11.6 184.029 13.968V15.504H173.437C173.437 16.784 173.661 17.6907 174.109 18.224C174.557 18.7573 175.346 19.024 176.477 19.024C177.266 19.024 177.97 18.8853 178.589 18.608V17.328H183.485V20.176C182.653 20.944 181.672 21.5307 180.541 21.936C179.41 22.32 178.024 22.512 176.381 22.512ZM178.141 12.432C178.141 11.5573 177.928 10.8853 177.501 10.416C177.096 9.92533 176.53 9.68 175.805 9.68C175.037 9.68 174.45 9.92533 174.045 10.416C173.64 10.8853 173.437 11.5573 173.437 12.432H178.141Z" fill="black"/>
</svg>
