<svg width="107" height="19" viewBox="0 0 107 19" fill="none" xmlns="http://www.w3.org/2000/svg">
<path d="M0.441 11.879H0.945C1.239 11.879 1.449 11.816 1.575 11.69C1.715 11.55 1.785 11.34 1.785 11.06V3.353C1.785 3.073 1.715 2.87 1.575 2.744C1.449 2.604 1.239 2.534 0.945 2.534H0.441V0.413H5.061L8.148 7.49L11.193 0.413H15.792V2.534H15.288C15.008 2.534 14.805 2.604 14.679 2.744C14.553 2.87 14.49 3.073 14.49 3.353V11.06C14.49 11.34 14.553 11.55 14.679 11.69C14.805 11.816 15.008 11.879 15.288 11.879H15.792V14H9.891V11.879H10.395C10.941 11.879 11.214 11.62 11.214 11.102V5.474L9.156 10.283H7.098L5.019 5.474V11.102C5.019 11.62 5.299 11.879 5.859 11.879H6.363V14H0.441V11.879ZM22.1217 14.315C20.3857 14.315 19.0487 13.86 18.1107 12.95C17.1727 12.026 16.7037 10.703 16.7037 8.981C16.7037 7.245 17.1657 5.915 18.0897 4.991C19.0137 4.067 20.3577 3.605 22.1217 3.605C23.8857 3.605 25.2297 4.067 26.1537 4.991C27.0777 5.915 27.5397 7.245 27.5397 8.981C27.5397 10.703 27.0707 12.026 26.1327 12.95C25.1947 13.86 23.8577 14.315 22.1217 14.315ZM22.1217 12.152C22.8777 12.152 23.4237 11.9 23.7597 11.396C24.0957 10.892 24.2637 10.087 24.2637 8.981C24.2637 7.847 24.0957 7.028 23.7597 6.524C23.4237 6.02 22.8777 5.768 22.1217 5.768C21.3657 5.768 20.8197 6.02 20.4837 6.524C20.1617 7.028 20.0007 7.847 20.0007 8.981C20.0007 10.087 20.1617 10.892 20.4837 11.396C20.8197 11.9 21.3657 12.152 22.1217 12.152ZM28.4137 11.858H28.8127C29.3727 11.858 29.6527 11.592 29.6527 11.06V6.86C29.6527 6.594 29.5897 6.398 29.4637 6.272C29.3377 6.146 29.1347 6.083 28.8547 6.083H28.4137V3.92H31.7317L31.8787 5.285C32.7607 4.165 34.0417 3.605 35.7217 3.605C36.9397 3.605 37.8287 3.906 38.3887 4.508C38.9627 5.096 39.2497 5.971 39.2497 7.133V11.081C39.2497 11.599 39.5227 11.858 40.0687 11.858H40.5517V14H35.9317V7.154C35.9317 6.622 35.8197 6.244 35.5957 6.02C35.3857 5.782 35.0427 5.663 34.5667 5.663C34.0627 5.663 33.6707 5.796 33.3907 6.062C33.1107 6.328 32.9707 6.734 32.9707 7.28V11.081C32.9707 11.347 33.0267 11.543 33.1387 11.669C33.2507 11.795 33.4397 11.858 33.7057 11.858H34.1257V14H28.4137V11.858ZM46.649 14.315C44.913 14.315 43.576 13.86 42.638 12.95C41.7 12.026 41.231 10.703 41.231 8.981C41.231 7.245 41.693 5.915 42.617 4.991C43.541 4.067 44.885 3.605 46.649 3.605C48.413 3.605 49.757 4.067 50.681 4.991C51.605 5.915 52.067 7.245 52.067 8.981C52.067 10.703 51.598 12.026 50.66 12.95C49.722 13.86 48.385 14.315 46.649 14.315ZM46.649 12.152C47.405 12.152 47.951 11.9 48.287 11.396C48.623 10.892 48.791 10.087 48.791 8.981C48.791 7.847 48.623 7.028 48.287 6.524C47.951 6.02 47.405 5.768 46.649 5.768C45.893 5.768 45.347 6.02 45.011 6.524C44.689 7.028 44.528 7.847 44.528 8.981C44.528 10.087 44.689 10.892 45.011 11.396C45.347 11.9 45.893 12.152 46.649 12.152ZM52.941 11.858H53.445C53.739 11.858 53.949 11.795 54.075 11.669C54.215 11.529 54.285 11.319 54.285 11.039V2.912C54.285 2.632 54.229 2.436 54.117 2.324C54.019 2.198 53.837 2.135 53.571 2.135H52.941V0.0979987H57.603V11.081C57.603 11.599 57.876 11.858 58.422 11.858H58.926V14H52.941V11.858ZM65.024 14.315C63.288 14.315 61.951 13.86 61.013 12.95C60.075 12.026 59.606 10.703 59.606 8.981C59.606 7.245 60.068 5.915 60.992 4.991C61.916 4.067 63.26 3.605 65.024 3.605C66.788 3.605 68.132 4.067 69.056 4.991C69.98 5.915 70.442 7.245 70.442 8.981C70.442 10.703 69.973 12.026 69.035 12.95C68.097 13.86 66.76 14.315 65.024 14.315ZM65.024 12.152C65.78 12.152 66.326 11.9 66.662 11.396C66.998 10.892 67.166 10.087 67.166 8.981C67.166 7.847 66.998 7.028 66.662 6.524C66.326 6.02 65.78 5.768 65.024 5.768C64.268 5.768 63.722 6.02 63.386 6.524C63.064 7.028 62.903 7.847 62.903 8.981C62.903 10.087 63.064 10.892 63.386 11.396C63.722 11.9 64.268 12.152 65.024 12.152ZM77.2244 18.2C76.2584 18.2 75.4184 18.074 74.7044 17.822C74.0044 17.57 73.3814 17.206 72.8354 16.73V15.092H75.6074V15.806C75.9994 16.058 76.5174 16.184 77.1614 16.184C78.1974 16.184 78.7154 15.631 78.7154 14.525V12.971C78.3234 13.349 77.8894 13.629 77.4134 13.811C76.9374 13.979 76.3634 14.063 75.6914 14.063C74.1934 14.063 73.0384 13.629 72.2264 12.761C71.4144 11.879 71.0084 10.563 71.0084 8.813C71.0084 7.707 71.2114 6.762 71.6174 5.978C72.0234 5.194 72.5834 4.606 73.2974 4.214C74.0254 3.808 74.8584 3.605 75.7964 3.605C76.6364 3.605 77.3224 3.738 77.8544 4.004C78.3864 4.27 78.8624 4.711 79.2824 5.327L79.4504 3.92H82.7054V5.999H82.4114C82.1454 5.999 81.9634 6.069 81.8654 6.209C81.7814 6.335 81.7394 6.559 81.7394 6.881V13.937C81.7394 15.239 81.3474 16.275 80.5634 17.045C79.7794 17.815 78.6664 18.2 77.2244 18.2ZM76.4474 12.11C77.1614 12.11 77.6864 11.858 78.0224 11.354C78.3584 10.85 78.5264 10.15 78.5264 9.254V8.477C78.5264 7.609 78.3514 6.902 78.0014 6.356C77.6654 5.796 77.1404 5.516 76.4264 5.516C75.6424 5.516 75.0894 5.775 74.7674 6.293C74.4454 6.811 74.2844 7.651 74.2844 8.813C74.2844 10.003 74.4454 10.85 74.7674 11.354C75.0894 11.858 75.6494 12.11 76.4474 12.11ZM88.0786 14.315C85.6706 14.315 84.4666 13.139 84.4666 10.787V6.839C84.4666 6.321 84.1936 6.062 83.6476 6.062H83.1646V3.92H87.7846V10.766C87.7846 11.298 87.8966 11.683 88.1206 11.921C88.3586 12.159 88.7156 12.278 89.1916 12.278C89.6816 12.278 90.0596 12.145 90.3256 11.879C90.6056 11.613 90.7456 11.207 90.7456 10.661V6.839C90.7456 6.573 90.6896 6.377 90.5776 6.251C90.4796 6.125 90.2976 6.062 90.0316 6.062H89.5906V3.92H95.3026V6.062H94.7776C94.5116 6.062 94.3226 6.125 94.2106 6.251C94.1126 6.377 94.0636 6.573 94.0636 6.839V11.06C94.0636 11.326 94.1266 11.529 94.2526 11.669C94.3786 11.795 94.5886 11.858 94.8826 11.858H95.3026V14H91.9846L91.8376 12.656C91.3336 13.258 90.7946 13.685 90.2206 13.937C89.6606 14.189 88.9466 14.315 88.0786 14.315ZM101.573 14.315C99.8094 14.315 98.4304 13.874 97.4364 12.992C96.4564 12.096 95.9664 10.78 95.9664 9.044C95.9664 7.224 96.4284 5.866 97.3524 4.97C98.2904 4.06 99.6204 3.605 101.342 3.605C103.022 3.605 104.296 4.067 105.164 4.991C106.046 5.901 106.487 7.126 106.487 8.666V9.674H99.2634C99.2634 10.584 99.4524 11.242 99.8304 11.648C100.208 12.054 100.803 12.257 101.615 12.257C102.301 12.257 102.882 12.152 103.358 11.942V11.165H106.13V12.887C105.598 13.363 104.961 13.72 104.219 13.958C103.491 14.196 102.609 14.315 101.573 14.315ZM103.211 7.889C103.211 7.161 103.05 6.615 102.728 6.251C102.406 5.873 101.93 5.684 101.3 5.684C100.628 5.684 100.117 5.873 99.7674 6.251C99.4314 6.629 99.2634 7.175 99.2634 7.889H103.211Z" fill="black"/>
</svg>
