<svg width="227" height="73" viewBox="0 0 227 73" fill="none" xmlns="http://www.w3.org/2000/svg">
<path d="M226 36.5C226 41.0862 223.109 45.6279 217.475 49.9114C211.857 54.1831 203.664 58.0728 193.45 61.3574C173.034 67.9229 144.768 72 113.5 72C82.2325 72 53.9656 67.9229 33.5495 61.3574C23.3359 58.0728 15.1429 54.1831 9.52463 49.9114C3.89071 45.6279 1 41.0862 1 36.5C1 31.9138 3.89071 27.3721 9.52463 23.0886C15.1429 18.8169 23.3359 14.9272 33.5495 11.6426C53.9656 5.07708 82.2325 1 113.5 1C144.768 1 173.034 5.07708 193.45 11.6426C203.664 14.9272 211.857 18.8169 217.475 23.0886C223.109 27.3721 226 31.9138 226 36.5Z" fill="#D3D3D3" stroke="black" stroke-width="2"/>
<path d="M63.8869 40.125V41.7812H50.8713V40.125H63.8869ZM62.7931 30.4688V32.0625H60.7931V36.375H62.7306V37.9375H51.9494V36.375H53.8556V32.0625H51.8869V30.4688H62.7931ZM55.8556 36.375H58.8244V32.0625H55.8556V36.375ZM69.4969 30.6406V36.0312H66.3719V38.4531C67.7547 38.4375 69.0672 38.375 70.5437 38.0938L70.7156 39.7188C68.8562 40.0625 67.2625 40.0938 65.4656 40.1094H64.4656V34.4531H67.575V32.2188H64.45V30.6406H69.4969ZM76.3562 29.2188V43.4375H74.4656V29.2188H76.3562ZM73.4031 29.4844V42.75H71.5437V35.6875H70.0906V34.0781H71.5437V29.4844H73.4031ZM89.1537 29.2344V37.2656H87.1537V29.2344H89.1537ZM89.1537 37.9062V43.2812H79.6225V37.9062H89.1537ZM81.5912 39.4844V41.6875H87.2006V39.4844H81.5912ZM81.3569 29.875C83.5756 29.875 85.2475 31.2812 85.2475 33.3125C85.2475 35.2656 83.5756 36.7031 81.3569 36.7031C79.1381 36.7031 77.4662 35.2656 77.4662 33.3125C77.4662 31.2812 79.1381 29.875 81.3569 29.875ZM81.3569 31.5469C80.2162 31.5469 79.4037 32.2031 79.4194 33.3125C79.4037 34.375 80.2162 35.0312 81.3569 35.0312C82.4662 35.0312 83.2787 34.375 83.2787 33.3125C83.2787 32.2031 82.4662 31.5469 81.3569 31.5469ZM100.733 30.3906V37.2188H93.905V30.3906H100.733ZM95.8737 31.9844V35.6562H98.7644V31.9844H95.8737ZM104.764 29.2188V33.3125H106.686V34.9531H104.764V39.5938H102.764V29.2188H104.764ZM105.28 41.5938V43.1875H95.5456V38.5781H97.53V41.5938H105.28ZM119.671 34.7656V36.3281H106.671V34.7656H119.671ZM118.124 32.4219V33.9844H108.296V29.5H118.015V31.0938H110.281V32.4219H118.124ZM118.062 37.1719V40.8906H110.14V41.7656H118.437V43.3125H108.187V39.4688H116.093V38.6719H108.171V37.1719H118.062ZM131.844 29.2188V43.4688H129.859V35.9688H127.562V34.3438H129.859V29.2188H131.844ZM126.766 30.4062V35.7344H122.344V38.5156C124.305 38.5 125.969 38.4297 127.797 38.1094L127.953 39.7344C125.844 40.0781 123.906 40.1562 121.531 40.1562H120.359V34.1562H124.828V32.0156H120.328V30.4062H126.766ZM147.314 29.2188V34.6719H149.329V36.3125H147.314V43.4062H145.314V29.2188H147.314ZM143.517 30.6719C143.501 34.9219 141.845 38.6094 137.064 40.9531L135.939 39.4219C139.306 37.7344 141.111 35.4688 141.486 32.2969H136.751V30.6719H143.517ZM161.236 29.2188V43.4375H159.221V29.2188H161.236ZM156.971 30.7031C156.971 35.0156 155.455 38.5938 150.377 41L149.33 39.4062C153.002 37.6719 154.619 35.4219 154.939 32.2656H150.096V30.7031H156.971ZM167.033 41.696L165.273 39.264L171.545 35.456L170.169 33.536L176.729 32.736L173.913 38.72L172.601 36.896L167.033 41.696Z" fill="black"/>
</svg>
