<svg width="398" height="128" viewBox="0 0 398 128" fill="none" xmlns="http://www.w3.org/2000/svg">
<path d="M397 64C397 72.3831 391.717 80.5421 381.756 88.1157C371.811 95.6774 357.358 102.53 339.408 108.303C303.52 119.845 253.878 127 199 127C144.122 127 94.4804 119.845 58.5919 108.303C40.642 102.53 26.1885 95.6774 16.2437 88.1157C6.28323 80.5421 1 72.3831 1 64C1 55.6169 6.28323 47.4579 16.2437 39.8843C26.1885 32.3226 40.642 25.47 58.5919 19.6971C94.4804 8.15512 144.122 1 199 1C253.878 1 303.52 8.15512 339.408 19.6971C357.358 25.47 371.811 32.3226 381.756 39.8843C391.717 47.4579 397 55.6169 397 64Z" fill="#D3D3D3" stroke="black" stroke-width="2"/>
<path d="M83.7172 73.3125V77.4531H51.1781V73.3125H83.7172ZM80.9828 49.1719V53.1562H75.9828V63.9375H80.8266V67.8438H53.8734V63.9375H58.6391V53.1562H53.7172V49.1719H80.9828ZM63.6391 63.9375H71.0609V53.1562H63.6391V63.9375ZM97.7422 49.6016V63.0781H89.9297V69.1328C93.3867 69.0938 96.668 68.9375 100.359 68.2344L100.789 72.2969C96.1406 73.1562 92.1563 73.2344 87.6641 73.2734H85.1641V59.1328H92.9375V53.5469H85.125V49.6016H97.7422ZM114.891 46.0469V81.5938H110.164V46.0469H114.891ZM107.508 46.7109V79.875H102.859V62.2188H99.2266V58.1953H102.859V46.7109H107.508ZM146.884 46.0859V66.1641H141.884V46.0859H146.884ZM146.884 67.7656V81.2031H123.056V67.7656H146.884ZM127.978 71.7109V77.2188H142.002V71.7109H127.978ZM127.392 47.6875C132.939 47.6875 137.119 51.2031 137.119 56.2812C137.119 61.1641 132.939 64.7578 127.392 64.7578C121.845 64.7578 117.666 61.1641 117.666 56.2812C117.666 51.2031 121.845 47.6875 127.392 47.6875ZM127.392 51.8672C124.541 51.8672 122.509 53.5078 122.548 56.2812C122.509 58.9375 124.541 60.5781 127.392 60.5781C130.166 60.5781 132.197 58.9375 132.197 56.2812C132.197 53.5078 130.166 51.8672 127.392 51.8672ZM175.833 48.9766V66.0469H158.763V48.9766H175.833ZM163.684 52.9609V62.1406H170.911V52.9609H163.684ZM185.911 46.0469V56.2812H190.716V60.3828H185.911V71.9844H180.911V46.0469H185.911ZM187.2 76.9844V80.9688H162.864V69.4453H167.825V76.9844H187.2ZM223.178 59.9141V63.8203H190.678V59.9141H223.178ZM219.311 54.0547V57.9609H194.741V46.75H219.038V50.7344H199.702V54.0547H219.311ZM219.155 65.9297V75.2266H199.35V77.4141H220.092V81.2812H194.467V71.6719H214.233V69.6797H194.428V65.9297H219.155ZM253.609 46.0469V81.6719H248.648V62.9219H242.906V58.8594H248.648V46.0469H253.609ZM240.914 49.0156V62.3359H229.859V69.2891C234.762 69.25 238.922 69.0742 243.492 68.2734L243.883 72.3359C238.609 73.1953 233.766 73.3906 227.828 73.3906H224.898V58.3906H236.07V53.0391H224.82V49.0156H240.914ZM292.284 46.0469V59.6797H297.323V63.7812H292.284V81.5156H287.284V46.0469H292.284ZM282.792 49.6797C282.753 60.3047 278.613 69.5234 266.659 75.3828L263.847 71.5547C272.265 67.3359 276.777 61.6719 277.714 53.7422H265.878V49.6797H282.792ZM327.091 46.0469V81.5938H322.052V46.0469H327.091ZM316.427 49.7578C316.427 60.5391 312.638 69.4844 299.942 75.5L297.325 71.5156C306.505 67.1797 310.548 61.5547 311.348 53.6641H299.239V49.7578H316.427ZM341.582 77.24L337.182 71.16L352.862 61.64L349.422 56.84L365.822 54.84L358.782 69.8L355.502 65.24L341.582 77.24Z" fill="black"/>
</svg>
